<svg width="260" height="211" viewBox="0 0 260 211" fill="none" xmlns="http://www.w3.org/2000/svg">
<path fill-rule="evenodd" clip-rule="evenodd" d="M257.897 146.041L226.828 70.4393C224.879 65.6976 221.125 61.9251 216.39 59.9516L77.042 1.86799C64.7181 -3.26891 50.5523 2.55263 45.4016 14.8708L1.87678 118.964C-3.27388 131.282 2.54117 145.432 14.8651 150.569L154.213 208.652C158.948 210.626 164.274 210.638 169.021 208.688L244.708 177.584C257.064 172.506 262.969 158.384 257.897 146.041ZM197.002 152.407C193.306 143.415 197.609 133.126 206.611 129.426C215.614 125.727 225.907 130.018 229.603 139.01C233.298 148.002 228.996 158.291 219.994 161.991C210.991 165.691 200.697 161.4 197.002 152.407Z" fill="#D14D45"/>
<path d="M36.0601 99.069C36.0601 77.0852 52.5114 62.2351 74.4952 62.2351C89.6363 62.2351 99.0995 68.9322 103.322 75.1925L88.7628 88.7322C85.9967 84.6557 81.4834 82.0351 75.5143 82.0351C66.1967 82.0351 59.0629 88.441 59.0629 99.069C59.0629 109.697 66.1967 116.248 75.5143 116.248C81.4834 116.248 85.9967 113.337 88.7628 109.406L103.322 123.091C99.0995 129.206 89.6363 136.048 74.4952 136.048C52.5114 136.048 36.0601 121.198 36.0601 99.069Z" fill="white"/>
<path d="M140.376 126.003V161.089H117.955V63.9821H140.376V72.1351C145.909 65.4381 153.188 62.2351 161.195 62.2351C178.812 62.2351 192.06 75.3381 192.06 99.069C192.06 122.945 178.812 136.048 161.195 136.048C153.334 136.048 146.2 132.991 140.376 126.003ZM169.203 99.069C169.203 88.5866 162.506 82.0351 153.77 82.0351C148.966 82.0351 143.143 84.6557 140.376 88.441V109.842C143.143 113.482 148.966 116.248 153.77 116.248C162.506 116.248 169.203 109.697 169.203 99.069Z" fill="white"/>
</svg>
