<svg width="463" height="259" viewBox="0 0 463 259" fill="none" xmlns="http://www.w3.org/2000/svg">
<path d="M396.104 111C390.494 111 385.648 109.943 381.568 107.831C377.561 105.718 374.464 102.912 372.279 99.4151C370.093 95.9179 369 92.0927 369 87.9397C369 82.9853 370.566 78.541 373.699 74.6066C376.832 70.6721 381.168 67.5027 386.705 65.0984L397.962 60.1803C400.293 59.1603 402.078 57.9581 403.317 56.5738C404.629 55.1166 405.284 53.5502 405.284 51.8744C405.284 49.5429 404.556 47.685 403.098 46.3006C401.714 44.8434 399.856 44.1148 397.525 44.1148C395.266 44.1148 393.408 44.8434 391.951 46.3006C390.494 47.685 389.765 49.5429 389.765 51.8744C389.765 53.9145 390.348 55.918 391.514 57.8852C392.68 59.8525 394.501 62.2205 396.978 64.9892L416.268 86.683L435.557 108.377V109.251H417.306L381.568 68.8141C379.31 66.264 377.634 63.5684 376.541 60.7269C375.448 57.8853 374.902 54.9345 374.902 51.8744C374.902 47.7214 375.849 44.0782 377.743 40.9453C379.638 37.8123 382.297 35.3716 385.721 33.623C389.146 31.8743 393.08 31 397.525 31C402.042 31 405.976 31.8743 409.328 33.623C412.752 35.3716 415.412 37.8123 417.306 40.9453C419.2 44.0782 420.148 47.7214 420.148 51.8744C420.148 56.0274 418.945 59.9252 416.541 63.5682C414.137 67.1383 410.639 69.8706 406.049 71.7649L394.902 76.4643C391.113 78.0672 388.344 79.7432 386.596 81.4918C384.92 83.2404 384.082 85.4626 384.082 88.1584C384.082 89.6884 384.519 91.2185 385.393 92.7486C386.341 94.2057 387.725 95.4443 389.547 96.4643C391.441 97.4115 393.809 97.8852 396.65 97.8852C402.042 97.8852 406.705 95.7358 410.639 91.4371C414.647 87.1384 417.306 80.581 418.617 71.7649L419.82 71.5463L431.404 75.0436C430.384 82.6939 428.271 89.2149 425.066 94.6066C421.86 99.9253 417.816 104.005 412.934 106.847C408.053 109.616 402.443 111 396.104 111Z" fill="#D14D45"/>
<path d="M2.891 81.849C2.891 63.6598 16.5028 51.3731 34.692 51.3731C47.2197 51.3731 55.0495 56.9141 58.5428 62.0939L46.497 73.2965C44.2083 69.9237 40.4741 67.7554 35.5353 67.7554C27.8259 67.7554 21.9234 73.0556 21.9234 81.849C21.9234 90.6425 27.8259 96.0631 35.5353 96.0631C40.4741 96.0631 44.2083 93.654 46.497 90.4016L58.5428 101.725C55.0495 106.784 47.2197 112.446 34.692 112.446C16.5028 112.446 2.891 100.159 2.891 81.849ZM94.8008 112.446C75.0456 112.446 63.1202 98.2314 63.1202 81.849C63.1202 65.4667 75.0456 51.3731 94.8008 51.3731C114.797 51.3731 126.602 65.4667 126.602 81.849C126.602 98.2314 114.797 112.446 94.8008 112.446ZM94.8008 96.0631C102.992 96.0631 107.569 89.6789 107.569 81.849C107.569 74.1397 102.992 67.7554 94.8008 67.7554C86.7301 67.7554 82.2731 74.1397 82.2731 81.849C82.2731 89.6789 86.7301 96.0631 94.8008 96.0631ZM194.32 111H175.77V77.3921C175.77 70.285 172.035 67.7554 166.253 67.7554C160.712 67.7554 157.099 70.7669 154.93 73.417V111H136.38V52.8186H154.93V59.9256C158.424 55.83 165.29 51.3731 175.047 51.3731C188.297 51.3731 194.32 59.0824 194.32 69.8032V111ZM203.93 81.849C203.93 63.6598 217.541 51.3731 235.731 51.3731C248.258 51.3731 256.088 56.9141 259.581 62.0939L247.536 73.2965C245.247 69.9237 241.513 67.7554 236.574 67.7554C228.865 67.7554 222.962 73.0556 222.962 81.849C222.962 90.6425 228.865 96.0631 236.574 96.0631C241.513 96.0631 245.247 93.654 247.536 90.4016L259.581 101.725C256.088 106.784 248.258 112.446 235.731 112.446C217.541 112.446 203.93 100.159 203.93 81.849ZM295.839 112.446C276.084 112.446 264.159 98.2314 264.159 81.849C264.159 65.4667 276.084 51.3731 295.839 51.3731C315.836 51.3731 327.64 65.4667 327.64 81.849C327.64 98.2314 315.836 112.446 295.839 112.446ZM295.839 96.0631C304.031 96.0631 308.608 89.6789 308.608 81.849C308.608 74.1397 304.031 67.7554 295.839 67.7554C287.769 67.7554 283.312 74.1397 283.312 81.849C283.312 89.6789 287.769 96.0631 295.839 96.0631Z" fill="#D14D45"/>
<circle cx="423" cy="176" r="40" fill="#D14D45"/>
<path d="M391.802 177.916C391.802 172.871 395.577 169.464 400.621 169.464C404.095 169.464 406.267 171.001 407.235 172.437L403.895 175.544C403.26 174.608 402.225 174.007 400.855 174.007C398.717 174.007 397.08 175.477 397.08 177.916C397.08 180.354 398.717 181.858 400.855 181.858C402.225 181.858 403.26 181.189 403.895 180.288L407.235 183.428C406.267 184.831 404.095 186.401 400.621 186.401C395.577 186.401 391.802 182.993 391.802 177.916ZM416.957 186.401C411.478 186.401 408.171 182.459 408.171 177.916C408.171 173.372 411.478 169.464 416.957 169.464C422.502 169.464 425.776 173.372 425.776 177.916C425.776 182.459 422.502 186.401 416.957 186.401ZM416.957 181.858C419.228 181.858 420.498 180.087 420.498 177.916C420.498 175.778 419.228 174.007 416.957 174.007C414.719 174.007 413.482 175.778 413.482 177.916C413.482 180.087 414.719 181.858 416.957 181.858ZM453.609 186H448.498V176.179C448.498 174.942 447.897 174.007 446.36 174.007C444.957 174.007 443.955 174.909 443.454 175.577V186H438.309V176.179C438.309 174.942 437.741 174.007 436.171 174.007C434.801 174.007 433.833 174.909 433.298 175.577V186H428.154V169.865H433.298V171.836C434 170.9 436.071 169.464 438.61 169.464C440.915 169.464 442.518 170.433 443.186 172.337C444.122 170.934 446.226 169.464 448.765 169.464C451.739 169.464 453.609 171.001 453.609 174.308V186Z" fill="white"/>
<path d="M73.0265 204.307V241.061H49.5404V139.339H73.0265V147.879C78.8217 140.864 86.4471 137.509 94.835 137.509C113.288 137.509 127.166 151.235 127.166 176.093C127.166 201.104 113.288 214.83 94.835 214.83C86.5996 214.83 79.1268 211.627 73.0265 204.307ZM103.223 176.093C103.223 165.113 96.2076 158.25 87.0571 158.25C82.0244 158.25 75.9241 160.995 73.0265 164.96V187.379C75.9241 191.191 82.0244 194.089 87.0571 194.089C96.2076 194.089 103.223 187.226 103.223 176.093ZM215.749 213H192.263V204.155C187.688 209.34 179.148 214.83 166.794 214.83C150.019 214.83 142.546 205.375 142.546 191.802V139.339H166.032V182.194C166.032 191.039 170.607 194.089 178.233 194.089C184.943 194.089 189.518 190.429 192.263 186.921V139.339H215.749V213ZM309.205 213H285.719V170.451C285.719 161.453 280.991 158.25 273.671 158.25C266.656 158.25 262.08 162.063 259.335 165.418V213H235.849V139.339H259.335V148.337C263.758 143.152 272.451 137.509 284.804 137.509C301.58 137.509 309.205 147.269 309.205 160.843V213ZM357.21 214.83C342.265 214.83 334.182 207.357 334.182 193.174V159.775H321.981V139.339H334.182V119.208H357.515V139.339H372.461V159.775H357.515V186.616C357.515 190.886 359.955 194.089 364.073 194.089C366.666 194.089 369.258 193.174 370.021 192.259L374.596 209.95C371.698 212.695 365.903 214.83 357.21 214.83Z" fill="#D14D45"/>
</svg>
